<svg xmlns="http://www.w3.org/2000/svg" viewBox="0 0 32 32"><g xmlns="http://www.w3.org/2000/svg" data-name="488-Server"><path d="M31,0H1A1,1,0,0,0,0,1V31a1,1,0,0,0,1,1H17V30H2V22H18V20H2V12H30v9h2V1A1,1,0,0,0,31,0ZM30,10H2V2H30Z"></path><rect x="4" y="5" width="6" height="2"></rect><rect x="5" y="15" width="18" height="2"></rect><rect x="25" y="15" width="2" height="2"></rect><rect x="5" y="25" width="2" height="2"></rect><rect x="9" y="25" width="2" height="2"></rect><rect x="13" y="25" width="2" height="2"></rect><rect x="12" y="5" width="2" height="2"></rect><rect x="16" y="5" width="2" height="2"></rect><rect x="20" y="5" width="2" height="2"></rect><rect x="24" y="5" width="2" height="2"></rect><path d="M25,26.59l-2.29-2.29a1,1,0,0,0-1.41,0l-3,3,1.41,1.41L22,26.41l2.29,2.29a1,1,0,0,0,1.41,0l5-5-1.41-1.41Z"></path></g></svg>